<svg width="180" height="180" viewBox="0 0 180 180" fill="none" xmlns="http://www.w3.org/2000/svg">
<circle cx="90" cy="90" r="90" fill="#013E39"/>
<path d="M88.167 98.4628C87.1098 97.187 87.287 95.2958 88.5628 94.2387L91.3678 91.9144C92.6435 90.8572 94.5347 91.0344 95.5919 92.3102L138.25 143.79C139.307 145.066 139.13 146.957 137.854 148.014L135.049 150.338C133.774 151.395 131.882 151.218 130.825 149.942L88.167 98.4628Z" fill="white"/>
<path d="M103.586 75.6508C100.129 93.7863 82.6245 105.686 64.489 102.228C46.3535 98.7714 34.4542 81.2672 37.9113 63.1316C41.3684 44.9961 58.8726 33.0968 77.0082 36.5539C95.1437 40.011 107.043 57.5153 103.586 75.6508Z" stroke="white" stroke-width="6"/>
</svg>
